# xmcd CD database file
#
# Track frame offsets:
#	150
#	14547
#	27339
#	44041
#
# Disc length: 773 seconds
#
# Revision: 0
# Processed by: cddbd v1.5.1PL0 Copyright (c) Steve Scherf et al.
# Submitted via: CDex 1.50beta10
#
DISCID=30030304
DTITLE=Second Saturday - Forty-nine Perfect
DYEAR=2003
DGENRE=Rock
TTITLE0=Forty-nine Perfect
TTITLE1=The Chase
TTITLE2=Let's Run Away
TTITLE3=Forty-nine Perfect
EXTD=YEAR: 2003
EXTT0=
EXTT1=
EXTT2=
EXTT3=
PLAYORDER=
